{
	"asset":{
		"generator":"Khronos glTF Blender I/O v4.0.44",
		"version":"2.0"
	},
	"scene":0,
	"scenes":[
		{
			"name":"Scene",
			"nodes":[
				0,
				1,
				2,
				3,
				4,
				5,
				6,
				7,
				8
			]
		}
	],
	"nodes":[
		{
			"mesh":0,
			"name":"Head"
		},
		{
			"mesh":1,
			"name":"ClownNose"
		},
		{
			"mesh":2,
			"name":"ClownEyes"
		},
		{
			"mesh":3,
			"name":"ClownMouth"
		},
		{
			"mesh":4,
			"name":"ClownHat"
		},
		{
			"mesh":5,
			"name":"GoblinEyes"
		},
		{
			"mesh":6,
			"name":"GoblinNose"
		},
		{
			"mesh":7,
			"name":"GoblinHat"
		},
		{
			"mesh":8,
			"name":"GoblinMouth"
		}
	],
	"materials":[
		{
			"doubleSided":true,
			"name":"White",
			"pbrMetallicRoughness":{
				"baseColorFactor":[
					0.800000011920929,
					0.800000011920929,
					0.800000011920929,
					1
				],
				"metallicFactor":0,
				"roughnessFactor":0.5
			}
		},
		{
			"doubleSided":true,
			"name":"Red",
			"pbrMetallicRoughness":{
				"baseColorFactor":[
					0.8001017570495605,
					0.00047499651554971933,
					0,
					1
				],
				"metallicFactor":0,
				"roughnessFactor":0.5
			}
		},
		{
			"doubleSided":true,
			"name":"Black",
			"pbrMetallicRoughness":{
				"baseColorFactor":[
					0,
					0,
					0,
					1
				],
				"metallicFactor":0,
				"roughnessFactor":0.5
			}
		},
		{
			"doubleSided":true,
			"name":"Material",
			"pbrMetallicRoughness":{
				"baseColorFactor":[
					0.011388677172362804,
					0.8004899024963379,
					0.003752145217731595,
					1
				],
				"metallicFactor":0,
				"roughnessFactor":0.5
			}
		},
		{
			"doubleSided":true,
			"name":"Blue",
			"pbrMetallicRoughness":{
				"baseColorFactor":[
					0.053111735731363297,
					0.06329948455095291,
					0.8001260757446289,
					1
				],
				"metallicFactor":0,
				"roughnessFactor":0.5
			}
		}
	],
	"meshes":[
		{
			"name":"Sphere",
			"primitives":[
				{
					"attributes":{
						"POSITION":0,
						"NORMAL":1,
						"TEXCOORD_0":2
					},
					"indices":3,
					"material":0
				}
			]
		},
		{
			"name":"Sphere.001",
			"primitives":[
				{
					"attributes":{
						"POSITION":4,
						"NORMAL":5,
						"TEXCOORD_0":6
					},
					"indices":7,
					"material":1
				}
			]
		},
		{
			"name":"Cube.001",
			"primitives":[
				{
					"attributes":{
						"POSITION":8,
						"NORMAL":9,
						"TEXCOORD_0":10
					},
					"indices":11,
					"material":2
				}
			]
		},
		{
			"name":"Torus",
			"primitives":[
				{
					"attributes":{
						"POSITION":12,
						"NORMAL":13,
						"TEXCOORD_0":14
					},
					"indices":15,
					"material":1
				}
			]
		},
		{
			"name":"Cone",
			"primitives":[
				{
					"attributes":{
						"POSITION":16,
						"NORMAL":17,
						"TEXCOORD_0":18
					},
					"indices":19,
					"material":3
				},
				{
					"attributes":{
						"POSITION":20,
						"NORMAL":21,
						"TEXCOORD_0":22
					},
					"indices":23,
					"material":4
				}
			]
		},
		{
			"name":"Sphere.002",
			"primitives":[
				{
					"attributes":{
						"POSITION":24,
						"NORMAL":25,
						"TEXCOORD_0":26
					},
					"indices":27,
					"material":0
				},
				{
					"attributes":{
						"POSITION":28,
						"NORMAL":29,
						"TEXCOORD_0":30
					},
					"indices":31,
					"material":2
				},
				{
					"attributes":{
						"POSITION":32,
						"NORMAL":33,
						"TEXCOORD_0":34
					},
					"indices":35,
					"material":4
				},
				{
					"attributes":{
						"POSITION":36,
						"NORMAL":37,
						"TEXCOORD_0":38
					},
					"indices":39,
					"material":3
				}
			]
		},
		{
			"name":"Cone.001",
			"primitives":[
				{
					"attributes":{
						"POSITION":40,
						"NORMAL":41,
						"TEXCOORD_0":42
					},
					"indices":43,
					"material":3
				}
			]
		},
		{
			"name":"Plane.001",
			"primitives":[
				{
					"attributes":{
						"POSITION":44,
						"NORMAL":45,
						"TEXCOORD_0":46
					},
					"indices":47,
					"material":3
				}
			]
		},
		{
			"name":"Plane.002",
			"primitives":[
				{
					"attributes":{
						"POSITION":48,
						"NORMAL":49,
						"TEXCOORD_0":50
					},
					"indices":51,
					"material":1
				},
				{
					"attributes":{
						"POSITION":52,
						"NORMAL":53,
						"TEXCOORD_0":54
					},
					"indices":55,
					"material":0
				}
			]
		}
	],
	"accessors":[
		{
			"bufferView":0,
			"componentType":5126,
			"count":151,
			"max":[
				1,
				1,
				1
			],
			"min":[
				-1,
				-1,
				-0.9999999403953552
			],
			"type":"VEC3"
		},
		{
			"bufferView":1,
			"componentType":5126,
			"count":151,
			"type":"VEC3"
		},
		{
			"bufferView":2,
			"componentType":5126,
			"count":151,
			"type":"VEC2"
		},
		{
			"bufferView":3,
			"componentType":5123,
			"count":672,
			"type":"SCALAR"
		},
		{
			"bufferView":4,
			"componentType":5126,
			"count":115,
			"max":[
				0.24672161042690277,
				0.24672150611877441,
				1.365254282951355
			],
			"min":[
				-0.24672140181064606,
				-0.24672150611877441,
				0.8718112707138062
			],
			"type":"VEC3"
		},
		{
			"bufferView":5,
			"componentType":5126,
			"count":115,
			"type":"VEC3"
		},
		{
			"bufferView":6,
			"componentType":5126,
			"count":115,
			"type":"VEC2"
		},
		{
			"bufferView":7,
			"componentType":5123,
			"count":504,
			"type":"SCALAR"
		},
		{
			"bufferView":8,
			"componentType":5126,
			"count":64,
			"max":[
				0.517886221408844,
				0.6169650554656982,
				0.9755730032920837
			],
			"min":[
				-0.517886221408844,
				0.1486070305109024,
				0.8665400743484497
			],
			"type":"VEC3"
		},
		{
			"bufferView":9,
			"componentType":5126,
			"count":64,
			"type":"VEC3"
		},
		{
			"bufferView":10,
			"componentType":5126,
			"count":64,
			"type":"VEC2"
		},
		{
			"bufferView":11,
			"componentType":5123,
			"count":252,
			"type":"SCALAR"
		},
		{
			"bufferView":12,
			"componentType":5126,
			"count":96,
			"max":[
				0.5247715711593628,
				-0.1866883933544159,
				1.0309056043624878
			],
			"min":[
				-0.5247715711593628,
				-0.5873456001281738,
				0.9444910883903503
			],
			"type":"VEC3"
		},
		{
			"bufferView":13,
			"componentType":5126,
			"count":96,
			"type":"VEC3"
		},
		{
			"bufferView":14,
			"componentType":5126,
			"count":96,
			"type":"VEC2"
		},
		{
			"bufferView":15,
			"componentType":5123,
			"count":504,
			"type":"SCALAR"
		},
		{
			"bufferView":16,
			"componentType":5126,
			"count":13,
			"max":[
				0.7042229175567627,
				2.1054720878601074,
				0.5881070494651794
			],
			"min":[
				-0.665438175201416,
				0.6878235936164856,
				-0.7778252959251404
			],
			"type":"VEC3"
		},
		{
			"bufferView":17,
			"componentType":5126,
			"count":13,
			"type":"VEC3"
		},
		{
			"bufferView":18,
			"componentType":5126,
			"count":13,
			"type":"VEC2"
		},
		{
			"bufferView":19,
			"componentType":5123,
			"count":36,
			"type":"SCALAR"
		},
		{
			"bufferView":20,
			"componentType":5126,
			"count":184,
			"max":[
				1.5589243173599243,
				1.207922101020813,
				0.6365196704864502
			],
			"min":[
				-1.5589243173599243,
				-0.18453553318977356,
				-0.6441348195075989
			],
			"type":"VEC3"
		},
		{
			"bufferView":21,
			"componentType":5126,
			"count":184,
			"type":"VEC3"
		},
		{
			"bufferView":22,
			"componentType":5126,
			"count":184,
			"type":"VEC2"
		},
		{
			"bufferView":23,
			"componentType":5123,
			"count":1080,
			"type":"SCALAR"
		},
		{
			"bufferView":24,
			"componentType":5126,
			"count":46,
			"max":[
				0.5455235242843628,
				0.4652066230773926,
				0.9817063808441162
			],
			"min":[
				-0.5455235242843628,
				0.1479683816432953,
				0.8717283606529236
			],
			"type":"VEC3"
		},
		{
			"bufferView":25,
			"componentType":5126,
			"count":46,
			"type":"VEC3"
		},
		{
			"bufferView":26,
			"componentType":5126,
			"count":46,
			"type":"VEC2"
		},
		{
			"bufferView":27,
			"componentType":5123,
			"count":138,
			"type":"SCALAR"
		},
		{
			"bufferView":28,
			"componentType":5126,
			"count":44,
			"max":[
				0.4045570194721222,
				0.45307832956314087,
				1.0272607803344727
			],
			"min":[
				-0.4045570194721222,
				0.2889348566532135,
				1.0154216289520264
			],
			"type":"VEC3"
		},
		{
			"bufferView":29,
			"componentType":5126,
			"count":44,
			"type":"VEC3"
		},
		{
			"bufferView":30,
			"componentType":5126,
			"count":44,
			"type":"VEC2"
		},
		{
			"bufferView":31,
			"componentType":5123,
			"count":66,
			"type":"SCALAR"
		},
		{
			"bufferView":32,
			"componentType":5126,
			"count":36,
			"max":[
				0.47864025831222534,
				0.4652066230773926,
				1.0154216289520264
			],
			"min":[
				-0.47864025831222534,
				0.21485160291194916,
				0.9817063808441162
			],
			"type":"VEC3"
		},
		{
			"bufferView":33,
			"componentType":5126,
			"count":36,
			"type":"VEC3"
		},
		{
			"bufferView":34,
			"componentType":5126,
			"count":36,
			"type":"VEC2"
		},
		{
			"bufferView":35,
			"componentType":5123,
			"count":84,
			"type":"SCALAR"
		},
		{
			"bufferView":36,
			"componentType":5126,
			"count":46,
			"max":[
				0.5455235242843628,
				0.6046756505966187,
				1.0174672603607178
			],
			"min":[
				-0.5455235242843628,
				0.37632203102111816,
				0.8717283606529236
			],
			"type":"VEC3"
		},
		{
			"bufferView":37,
			"componentType":5126,
			"count":46,
			"type":"VEC3"
		},
		{
			"bufferView":38,
			"componentType":5126,
			"count":46,
			"type":"VEC2"
		},
		{
			"bufferView":39,
			"componentType":5123,
			"count":162,
			"type":"SCALAR"
		},
		{
			"bufferView":40,
			"componentType":5126,
			"count":48,
			"max":[
				0.21574953198432922,
				0.3600226640701294,
				1.2261873483657837
			],
			"min":[
				-0.21574953198432922,
				-0.11333131790161133,
				0.810247540473938
			],
			"type":"VEC3"
		},
		{
			"bufferView":41,
			"componentType":5126,
			"count":48,
			"type":"VEC3"
		},
		{
			"bufferView":42,
			"componentType":5126,
			"count":48,
			"type":"VEC2"
		},
		{
			"bufferView":43,
			"componentType":5123,
			"count":66,
			"type":"SCALAR"
		},
		{
			"bufferView":44,
			"componentType":5126,
			"count":16,
			"max":[
				1.414401888847351,
				0.49346959590911865,
				0.02695521153509617
			],
			"min":[
				-1.4144015312194824,
				-0.31162118911743164,
				-1.3621394678864363e-08
			],
			"type":"VEC3"
		},
		{
			"bufferView":45,
			"componentType":5126,
			"count":16,
			"type":"VEC3"
		},
		{
			"bufferView":46,
			"componentType":5126,
			"count":16,
			"type":"VEC2"
		},
		{
			"bufferView":47,
			"componentType":5123,
			"count":24,
			"type":"SCALAR"
		},
		{
			"bufferView":48,
			"componentType":5126,
			"count":22,
			"max":[
				0.3398267328739166,
				-0.14823473989963531,
				1.0041331052780151
			],
			"min":[
				-0.3398267328739166,
				-0.4708188772201538,
				0.9969768524169922
			],
			"type":"VEC3"
		},
		{
			"bufferView":49,
			"componentType":5126,
			"count":22,
			"type":"VEC3"
		},
		{
			"bufferView":50,
			"componentType":5126,
			"count":22,
			"type":"VEC2"
		},
		{
			"bufferView":51,
			"componentType":5123,
			"count":42,
			"type":"SCALAR"
		},
		{
			"bufferView":52,
			"componentType":5126,
			"count":6,
			"max":[
				0.21831361949443817,
				-0.3245342969894409,
				1.0015215873718262
			],
			"min":[
				-0.21831361949443817,
				-0.4591943919658661,
				0.9991747736930847
			],
			"type":"VEC3"
		},
		{
			"bufferView":53,
			"componentType":5126,
			"count":6,
			"type":"VEC3"
		},
		{
			"bufferView":54,
			"componentType":5126,
			"count":6,
			"type":"VEC2"
		},
		{
			"bufferView":55,
			"componentType":5123,
			"count":6,
			"type":"SCALAR"
		}
	],
	"bufferViews":[
		{
			"buffer":0,
			"byteLength":1812,
			"byteOffset":0,
			"target":34962
		},
		{
			"buffer":0,
			"byteLength":1812,
			"byteOffset":1812,
			"target":34962
		},
		{
			"buffer":0,
			"byteLength":1208,
			"byteOffset":3624,
			"target":34962
		},
		{
			"buffer":0,
			"byteLength":1344,
			"byteOffset":4832,
			"target":34963
		},
		{
			"buffer":0,
			"byteLength":1380,
			"byteOffset":6176,
			"target":34962
		},
		{
			"buffer":0,
			"byteLength":1380,
			"byteOffset":7556,
			"target":34962
		},
		{
			"buffer":0,
			"byteLength":920,
			"byteOffset":8936,
			"target":34962
		},
		{
			"buffer":0,
			"byteLength":1008,
			"byteOffset":9856,
			"target":34963
		},
		{
			"buffer":0,
			"byteLength":768,
			"byteOffset":10864,
			"target":34962
		},
		{
			"buffer":0,
			"byteLength":768,
			"byteOffset":11632,
			"target":34962
		},
		{
			"buffer":0,
			"byteLength":512,
			"byteOffset":12400,
			"target":34962
		},
		{
			"buffer":0,
			"byteLength":504,
			"byteOffset":12912,
			"target":34963
		},
		{
			"buffer":0,
			"byteLength":1152,
			"byteOffset":13416,
			"target":34962
		},
		{
			"buffer":0,
			"byteLength":1152,
			"byteOffset":14568,
			"target":34962
		},
		{
			"buffer":0,
			"byteLength":768,
			"byteOffset":15720,
			"target":34962
		},
		{
			"buffer":0,
			"byteLength":1008,
			"byteOffset":16488,
			"target":34963
		},
		{
			"buffer":0,
			"byteLength":156,
			"byteOffset":17496,
			"target":34962
		},
		{
			"buffer":0,
			"byteLength":156,
			"byteOffset":17652,
			"target":34962
		},
		{
			"buffer":0,
			"byteLength":104,
			"byteOffset":17808,
			"target":34962
		},
		{
			"buffer":0,
			"byteLength":72,
			"byteOffset":17912,
			"target":34963
		},
		{
			"buffer":0,
			"byteLength":2208,
			"byteOffset":17984,
			"target":34962
		},
		{
			"buffer":0,
			"byteLength":2208,
			"byteOffset":20192,
			"target":34962
		},
		{
			"buffer":0,
			"byteLength":1472,
			"byteOffset":22400,
			"target":34962
		},
		{
			"buffer":0,
			"byteLength":2160,
			"byteOffset":23872,
			"target":34963
		},
		{
			"buffer":0,
			"byteLength":552,
			"byteOffset":26032,
			"target":34962
		},
		{
			"buffer":0,
			"byteLength":552,
			"byteOffset":26584,
			"target":34962
		},
		{
			"buffer":0,
			"byteLength":368,
			"byteOffset":27136,
			"target":34962
		},
		{
			"buffer":0,
			"byteLength":276,
			"byteOffset":27504,
			"target":34963
		},
		{
			"buffer":0,
			"byteLength":528,
			"byteOffset":27780,
			"target":34962
		},
		{
			"buffer":0,
			"byteLength":528,
			"byteOffset":28308,
			"target":34962
		},
		{
			"buffer":0,
			"byteLength":352,
			"byteOffset":28836,
			"target":34962
		},
		{
			"buffer":0,
			"byteLength":132,
			"byteOffset":29188,
			"target":34963
		},
		{
			"buffer":0,
			"byteLength":432,
			"byteOffset":29320,
			"target":34962
		},
		{
			"buffer":0,
			"byteLength":432,
			"byteOffset":29752,
			"target":34962
		},
		{
			"buffer":0,
			"byteLength":288,
			"byteOffset":30184,
			"target":34962
		},
		{
			"buffer":0,
			"byteLength":168,
			"byteOffset":30472,
			"target":34963
		},
		{
			"buffer":0,
			"byteLength":552,
			"byteOffset":30640,
			"target":34962
		},
		{
			"buffer":0,
			"byteLength":552,
			"byteOffset":31192,
			"target":34962
		},
		{
			"buffer":0,
			"byteLength":368,
			"byteOffset":31744,
			"target":34962
		},
		{
			"buffer":0,
			"byteLength":324,
			"byteOffset":32112,
			"target":34963
		},
		{
			"buffer":0,
			"byteLength":576,
			"byteOffset":32436,
			"target":34962
		},
		{
			"buffer":0,
			"byteLength":576,
			"byteOffset":33012,
			"target":34962
		},
		{
			"buffer":0,
			"byteLength":384,
			"byteOffset":33588,
			"target":34962
		},
		{
			"buffer":0,
			"byteLength":132,
			"byteOffset":33972,
			"target":34963
		},
		{
			"buffer":0,
			"byteLength":192,
			"byteOffset":34104,
			"target":34962
		},
		{
			"buffer":0,
			"byteLength":192,
			"byteOffset":34296,
			"target":34962
		},
		{
			"buffer":0,
			"byteLength":128,
			"byteOffset":34488,
			"target":34962
		},
		{
			"buffer":0,
			"byteLength":48,
			"byteOffset":34616,
			"target":34963
		},
		{
			"buffer":0,
			"byteLength":264,
			"byteOffset":34664,
			"target":34962
		},
		{
			"buffer":0,
			"byteLength":264,
			"byteOffset":34928,
			"target":34962
		},
		{
			"buffer":0,
			"byteLength":176,
			"byteOffset":35192,
			"target":34962
		},
		{
			"buffer":0,
			"byteLength":84,
			"byteOffset":35368,
			"target":34963
		},
		{
			"buffer":0,
			"byteLength":72,
			"byteOffset":35452,
			"target":34962
		},
		{
			"buffer":0,
			"byteLength":72,
			"byteOffset":35524,
			"target":34962
		},
		{
			"buffer":0,
			"byteLength":48,
			"byteOffset":35596,
			"target":34962
		},
		{
			"buffer":0,
			"byteLength":12,
			"byteOffset":35644,
			"target":34963
		}
	],
	"buffers":[
		{
			"byteLength":35656,
			"uri":"clown.bin"
		}
	]
}
