{
	"asset":{
		"generator":"Khronos glTF Blender I/O v4.0.44",
		"version":"2.0"
	},
	"scene":0,
	"scenes":[
		{
			"name":"Scene",
			"nodes":[
				0
			]
		}
	],
	"nodes":[
		{
			"mesh":0,
			"name":"Cube"
		}
	],
	"materials":[
		{
			"doubleSided":true,
			"name":"Marble",
			"pbrMetallicRoughness":{
				"baseColorFactor":[
					0.42829611897468567,
					0.42829611897468567,
					0.42829611897468567,
					1
				],
				"metallicFactor":0
			}
		},
		{
			"doubleSided":true,
			"name":"Rock",
			"pbrMetallicRoughness":{
				"baseColorFactor":[
					0.25874248147010803,
					0.25874248147010803,
					0.25874248147010803,
					1
				],
				"metallicFactor":0
			}
		}
	],
	"meshes":[
		{
			"name":"Cube.057",
			"primitives":[
				{
					"attributes":{
						"POSITION":0,
						"NORMAL":1,
						"TEXCOORD_0":2
					},
					"indices":3,
					"material":0
				},
				{
					"attributes":{
						"POSITION":4,
						"NORMAL":5,
						"TEXCOORD_0":6
					},
					"indices":7,
					"material":1
				}
			]
		}
	],
	"accessors":[
		{
			"bufferView":0,
			"componentType":5126,
			"count":532,
			"max":[
				0.749253511428833,
				2.430102825164795,
				0.749253511428833
			],
			"min":[
				-0.749253511428833,
				-0.22494375705718994,
				-0.749253511428833
			],
			"type":"VEC3"
		},
		{
			"bufferView":1,
			"componentType":5126,
			"count":532,
			"type":"VEC3"
		},
		{
			"bufferView":2,
			"componentType":5126,
			"count":532,
			"type":"VEC2"
		},
		{
			"bufferView":3,
			"componentType":5123,
			"count":2496,
			"type":"SCALAR"
		},
		{
			"bufferView":4,
			"componentType":5126,
			"count":1075,
			"max":[
				0.36696335673332214,
				2.2188239097595215,
				0.3213743567466736
			],
			"min":[
				-0.36696335673332214,
				0.31766417622566223,
				-0.20370115339756012
			],
			"type":"VEC3"
		},
		{
			"bufferView":5,
			"componentType":5126,
			"count":1075,
			"type":"VEC3"
		},
		{
			"bufferView":6,
			"componentType":5126,
			"count":1075,
			"type":"VEC2"
		},
		{
			"bufferView":7,
			"componentType":5123,
			"count":5634,
			"type":"SCALAR"
		}
	],
	"bufferViews":[
		{
			"buffer":0,
			"byteLength":6384,
			"byteOffset":0,
			"target":34962
		},
		{
			"buffer":0,
			"byteLength":6384,
			"byteOffset":6384,
			"target":34962
		},
		{
			"buffer":0,
			"byteLength":4256,
			"byteOffset":12768,
			"target":34962
		},
		{
			"buffer":0,
			"byteLength":4992,
			"byteOffset":17024,
			"target":34963
		},
		{
			"buffer":0,
			"byteLength":12900,
			"byteOffset":22016,
			"target":34962
		},
		{
			"buffer":0,
			"byteLength":12900,
			"byteOffset":34916,
			"target":34962
		},
		{
			"buffer":0,
			"byteLength":8600,
			"byteOffset":47816,
			"target":34962
		},
		{
			"buffer":0,
			"byteLength":11268,
			"byteOffset":56416,
			"target":34963
		}
	],
	"buffers":[
		{
			"byteLength":67684,
			"uri":"statue.bin"
		}
	]
}
